
<svg version="1.0" xmlns="http://www.w3.org/2000/svg"
width="1280.000000pt" height="766.000000pt" viewBox="0 0 1280.000000 766.000000"
preserveAspectRatio="xMidYMid meet">

<g transform="translate(0.000000,766.000000) scale(0.100000,-0.100000)"
fill="#000000" stroke="none">
<path d="M10610 7600 c-604 -84 -1037 -435 -1120 -908 -16 -94 -14 -285 5
-377 65 -313 274 -574 582 -729 119 -59 201 -89 578 -206 501 -155 609 -200
719 -301 104 -95 152 -240 127 -389 -17 -104 -53 -174 -130 -251 -140 -140
-372 -209 -702 -209 -324 0 -607 56 -934 186 -276 109 -305 93 -305 -172 0
-215 31 -275 185 -356 144 -75 441 -160 693 -198 177 -27 470 -37 622 -21 738
77 1227 490 1268 1069 33 462 -162 793 -589 997 -52 24 -206 81 -344 126 -137
44 -342 110 -455 147 -436 140 -599 265 -633 485 -22 142 28 294 126 383 160
145 502 203 902 153 189 -24 337 -64 520 -141 141 -60 200 -67 237 -30 22 21
23 31 26 198 3 163 2 178 -19 220 -62 130 -319 236 -749 310 -111 19 -508 28
-610 14z"/>
<path d="M1910 7594 c-313 -37 -630 -123 -865 -234 -185 -87 -197 -106 -203
-320 -8 -302 13 -316 311 -206 406 151 676 205 977 193 424 -17 636 -131 737
-396 53 -138 64 -225 70 -515 3 -153 2 -266 -3 -263 -19 11 -373 78 -522 98
-235 32 -578 32 -757 0 -302 -54 -532 -163 -718 -340 -106 -101 -169 -185
-228 -306 -88 -180 -124 -390 -107 -635 29 -439 280 -778 683 -923 145 -52
222 -62 465 -62 247 0 322 10 499 67 243 78 417 186 627 391 l112 108 67 -128
c103 -199 219 -341 295 -364 64 -19 101 -4 273 110 257 171 259 176 162 383
-78 167 -119 283 -135 388 -8 51 -15 358 -20 945 -8 927 -8 943 -60 1146 -124
485 -431 747 -990 845 -69 12 -169 17 -365 19 -148 2 -286 1 -305 -1z m660
-2139 c119 -16 357 -62 372 -71 11 -7 10 -226 -3 -342 -22 -208 -69 -338 -166
-457 -56 -69 -157 -156 -236 -203 -178 -107 -474 -172 -695 -151 -261 24 -425
155 -489 391 -13 46 -17 102 -17 208 0 129 3 154 26 222 33 100 74 162 153
237 103 95 251 156 440 181 100 13 480 4 615 -15z"/>
<path d="M4063 7474 c-51 -51 -60 -18 496 -1844 282 -927 522 -1705 532 -1730
23 -52 52 -85 94 -108 25 -14 70 -18 272 -20 337 -5 381 7 428 113 13 28 171
668 351 1423 181 754 331 1368 335 1364 3 -4 151 -612 328 -1352 178 -740 330
-1369 339 -1398 21 -69 69 -125 120 -140 55 -17 520 -16 575 0 60 18 100 64
130 149 61 171 1059 3388 1064 3431 7 57 -1 92 -27 118 -19 19 -34 20 -279 20
-166 0 -270 -4 -292 -11 -49 -17 -84 -53 -112 -117 -14 -32 -188 -689 -387
-1462 -199 -773 -365 -1408 -369 -1412 -3 -4 -157 630 -340 1410 -184 779
-343 1440 -353 1469 -21 59 -61 97 -116 113 -24 7 -128 10 -292 8 -303 -4
-316 -7 -362 -99 -20 -39 -117 -434 -360 -1468 -218 -929 -335 -1407 -340
-1395 -4 11 -166 642 -358 1404 -385 1521 -378 1496 -460 1538 -43 21 -54 22
-318 22 l-273 0 -26 -26z"/>
</g>
</svg>
