
<svg version="1.0" xmlns="http://www.w3.org/2000/svg"
width="900.000000pt" height="900.000000pt" viewBox="0 0 900.000000 900.000000"
preserveAspectRatio="xMidYMid meet">

<g transform="translate(0.000000,900.000000) scale(0.100000,-0.100000)"
fill="#000000" stroke="none">
<path d="M4295 7333 c-663 -87 -1198 -462 -1491 -1045 -50 -99 -140 -338 -128
-338 3 0 18 9 33 19 49 35 224 118 303 145 216 71 460 89 676 50 30 -6 39 -2
80 38 153 147 345 246 551 283 121 22 333 13 450 -19 190 -53 355 -150 484
-285 196 -205 295 -445 300 -727 l2 -109 63 -8 c256 -31 451 -244 461 -505 9
-243 -163 -471 -400 -527 -53 -12 -160 -15 -621 -15 l-558 0 0 -421 0 -420
633 4 c600 3 636 5 717 24 265 66 493 193 675 377 178 179 291 379 357 634 28
105 31 135 34 297 4 207 -8 292 -61 452 -92 276 -261 511 -497 688 -19 15 -36
49 -63 130 -97 288 -263 546 -487 760 -292 279 -633 445 -1043 509 -83 13
-396 19 -470 9z"/>
<path d="M1458 2011 c-77 -25 -147 -72 -207 -137 -96 -105 -133 -229 -112
-372 37 -247 279 -421 532 -384 222 33 370 212 357 435 l-3 52 -212 3 -213 2
0 -60 0 -60 150 0 c170 0 164 4 134 -83 -18 -55 -84 -119 -151 -149 -61 -27
-178 -29 -251 -4 -32 11 -73 36 -106 66 -178 163 -135 454 83 562 38 19 63 23
141 23 99 0 152 -17 206 -66 20 -19 21 -18 64 26 l43 44 -24 21 c-13 11 -57
37 -98 57 -69 35 -81 38 -175 40 -78 2 -114 -1 -158 -16z"/>
<path d="M4050 1565 l0 -435 60 0 60 0 0 435 0 435 -60 0 -60 0 0 -435z"/>
<path d="M5360 1936 c-143 -42 -249 -150 -287 -293 -20 -74 -13 -199 15 -271
101 -264 449 -344 672 -154 l35 30 -34 36 -34 35 -36 -31 c-19 -17 -59 -42
-89 -56 -48 -21 -64 -24 -140 -20 -101 5 -150 26 -213 89 -64 64 -83 117 -84
229 0 84 3 102 28 152 56 113 152 172 282 172 89 0 148 -20 198 -69 l29 -27
34 33 34 33 -26 27 c-14 15 -54 41 -90 59 -56 29 -75 33 -156 36 -57 2 -110
-2 -138 -10z"/>
<path d="M5890 1530 l0 -400 50 0 50 0 0 400 0 400 -50 0 -50 0 0 -400z"/>
<path d="M7770 1773 c1 -87 1 -162 0 -166 0 -5 -11 5 -25 21 -49 58 -176 83
-256 50 -172 -73 -225 -327 -98 -472 97 -110 245 -126 340 -36 21 20 40 34 40
31 1 -3 2 -19 3 -36 1 -29 3 -30 49 -33 l47 -3 0 400 0 401 -50 0 -51 0 1
-157z m-88 -189 c66 -34 100 -120 87 -222 -8 -61 -25 -90 -76 -129 -30 -23
-46 -28 -93 -28 -108 0 -180 79 -180 198 0 69 17 113 58 152 56 53 135 64 204
29z"/>
<path d="M2277 1686 c-122 -45 -197 -150 -197 -277 0 -197 187 -339 376 -284
96 27 160 85 194 173 55 144 -4 306 -136 371 -60 30 -179 39 -237 17z m191
-123 c95 -70 105 -208 22 -292 -98 -97 -272 -26 -284 116 -6 78 33 155 96 187
44 22 129 17 166 -11z"/>
<path d="M2940 1691 c-77 -25 -151 -89 -183 -161 -30 -65 -29 -177 2 -247 47
-105 148 -168 271 -168 173 1 293 119 293 290 0 115 -59 216 -158 268 -43 22
-179 33 -225 18z m147 -112 c140 -53 152 -267 19 -336 -39 -20 -114 -19 -154
1 -56 29 -86 80 -90 155 -3 60 -1 70 26 110 48 71 125 98 199 70z"/>
<path d="M3577 1686 c-74 -27 -146 -99 -173 -173 -18 -51 -17 -161 1 -212 38
-110 148 -187 265 -185 67 0 98 11 138 47 l22 20 0 -52 c0 -61 -17 -107 -55
-141 -23 -22 -35 -25 -102 -25 l-75 0 -43 47 -43 48 -49 -21 c-61 -27 -59 -24
-39 -53 60 -93 141 -137 250 -137 119 0 196 44 243 139 l28 57 3 320 3 321
-58 -1 c-52 0 -58 -3 -61 -23 -3 -21 -22 -32 -22 -13 0 5 -19 19 -43 30 -50
24 -132 27 -190 7z m191 -123 c62 -44 90 -160 58 -236 -17 -43 -80 -97 -114
-99 -85 -4 -130 15 -168 72 -63 94 -27 232 71 276 40 19 119 12 153 -13z"/>
<path d="M4405 1676 c-56 -26 -119 -90 -143 -145 -21 -49 -21 -193 1 -243 22
-53 90 -123 145 -149 71 -34 179 -33 252 3 30 15 70 43 89 61 l33 35 -45 31
c-47 32 -67 38 -67 21 0 -5 -18 -22 -40 -36 -49 -33 -130 -37 -175 -10 -37 22
-70 65 -59 76 5 4 90 40 189 80 99 41 184 77 189 82 16 13 -35 106 -85 153
-74 70 -188 86 -284 41z m184 -99 c27 -13 49 -43 39 -52 -9 -9 -241 -105 -254
-105 -16 0 1 74 24 105 41 56 134 81 191 52z"/>
<path d="M6309 1689 c-56 -8 -79 -20 -131 -67 -59 -54 -81 -103 -86 -200 -6
-102 13 -156 76 -224 56 -60 114 -83 207 -82 82 1 127 18 183 68 51 47 81 111
89 190 19 202 -135 345 -338 315z m103 -89 c139 -39 186 -238 81 -344 -56 -57
-126 -70 -199 -37 -102 47 -141 191 -79 297 27 46 55 68 106 82 45 13 48 13
91 2z"/>
<path d="M6740 1488 c0 -106 5 -209 10 -229 26 -93 95 -144 195 -143 67 0 113
20 157 67 l28 29 0 -41 0 -41 45 0 45 0 1 53 c1 65 1 456 0 480 -1 13 -10 17
-45 17 l-44 0 -4 -177 c-3 -160 -5 -182 -25 -219 -40 -74 -123 -103 -193 -67
-62 32 -70 63 -70 276 l0 187 -50 0 -50 0 0 -192z"/>
</g>
</svg>
